<svg xmlns="http://www.w3.org/2000/svg" width="374" height="38.629536758514874" viewBox="0 0 374 38.629536758514874" class="editor-view__logo-preview" data-v-7b637543="" data-v-e67b9e79=""><!----><svg id="name" viewBox="0 0 374.99200439453125 38.731998443603516" width="374" height="38.629536758514874" x="0" y="0" data-v-7b637543="" style="fill: rgb(0, 0, 0);"><rect x="0" y="0" width="100%" height="100%" fill="none" data-v-7b637543=""></rect><g data-v-7b637543=""><path xmlns="http://www.w3.org/2000/svg" d="M4.00 38.73L0 38.73L0 32.98Q1.24 32.98 2.12 32.84Q2.99 32.71 3.50 32.31Q4.00 31.92 4.23 31.16Q4.46 30.41 4.46 29.21L4.46 29.21L4.46 0.51L12.70 0.51L12.70 29.58Q12.70 32.61 11.94 34.66Q11.18 36.71 9.29 37.72Q7.41 38.73 4.00 38.73L4.00 38.73ZM25.30 37.77L17.85 37.77L17.85 0.51L25.30 0.51L25.30 13.52Q26.77 12.05 28.38 11.38Q29.99 10.72 31.83 10.72L31.83 10.72Q33.44 10.72 34.52 11.52Q35.60 12.33 36.16 13.73Q36.71 15.13 36.71 16.93L36.71 16.93L36.71 37.77L29.26 37.77L29.26 17.99Q29.26 17.02 28.93 16.51Q28.61 16.01 27.74 16.01L27.74 16.01Q27.28 16.01 26.63 16.26Q25.99 16.51 25.30 16.97L25.30 16.97L25.30 37.77ZM49.96 38.23L49.96 38.23Q47.10 38.23 45.01 37.26Q42.92 36.29 41.79 34.36Q40.66 32.43 40.66 29.53L40.66 29.53L40.66 19.41Q40.66 16.51 41.79 14.58Q42.92 12.65 45.01 11.68Q47.10 10.72 49.96 10.72L49.96 10.72Q52.81 10.72 54.90 11.68Q56.99 12.65 58.14 14.58Q59.29 16.51 59.29 19.41L59.29 19.41L59.29 29.53Q59.29 32.43 58.14 34.36Q56.99 36.29 54.90 37.26Q52.81 38.23 49.96 38.23ZM50.00 33.26L50.00 33.26Q50.74 33.26 51.15 32.87Q51.57 32.48 51.73 31.76Q51.89 31.05 51.89 30.04L51.89 30.04L51.89 18.91Q51.89 17.89 51.73 17.18Q51.57 16.47 51.15 16.08Q50.74 15.69 50.00 15.69L50.00 15.69Q49.27 15.69 48.85 16.08Q48.44 16.47 48.25 17.18Q48.07 17.89 48.07 18.91L48.07 18.91L48.07 30.04Q48.07 31.05 48.25 31.76Q48.44 32.48 48.85 32.87Q49.27 33.26 50.00 33.26ZM70.93 37.77L63.43 37.77L63.43 11.18L70.93 11.18L70.93 13.85Q72.40 12.37 73.99 11.55Q75.58 10.72 77.33 10.72L77.33 10.72Q78.98 10.72 80.06 11.52Q81.14 12.33 81.70 13.73Q82.25 15.13 82.25 16.93L82.25 16.93L82.25 37.77L74.80 37.77L74.80 17.99Q74.80 17.02 74.47 16.51Q74.15 16.01 73.28 16.01L73.28 16.01Q72.82 16.01 72.20 16.26Q71.58 16.51 70.93 16.97L70.93 16.97L70.93 37.77ZM92.23 38.23L92.23 38.23Q90.21 38.23 88.83 37.26Q87.45 36.29 86.76 34.80Q86.07 33.30 86.07 31.74L86.07 31.74Q86.07 29.26 87.05 27.55Q88.04 25.85 89.65 24.70Q91.26 23.55 93.20 22.75Q95.13 21.94 97.01 21.30L97.01 21.30L97.01 18.63Q97.01 17.94 96.88 17.41Q96.74 16.88 96.42 16.58Q96.09 16.28 95.45 16.28L95.45 16.28Q94.81 16.28 94.46 16.56Q94.12 16.84 93.98 17.32Q93.84 17.80 93.79 18.40L93.79 18.40L93.61 20.33L86.62 20.06Q86.85 15.27 89.17 12.99Q91.49 10.72 96.14 10.72L96.14 10.72Q100.19 10.72 102.19 12.95Q104.19 15.18 104.19 18.72L104.19 18.72L104.19 31.14Q104.19 32.80 104.26 34.04Q104.33 35.28 104.44 36.20Q104.56 37.12 104.65 37.77L104.65 37.77L97.93 37.77Q97.80 36.71 97.61 35.47Q97.43 34.22 97.34 33.99L97.34 33.99Q96.88 35.65 95.61 36.94Q94.35 38.23 92.23 38.23ZM94.90 33.17L94.90 33.17Q95.36 33.17 95.75 32.98Q96.14 32.80 96.46 32.48Q96.78 32.15 97.01 31.83L97.01 31.83L97.01 24.56Q96.09 25.12 95.31 25.69Q94.53 26.27 93.98 26.96Q93.43 27.65 93.13 28.45Q92.83 29.26 92.83 30.27L92.83 30.27Q92.83 31.60 93.38 32.38Q93.93 33.17 94.90 33.17ZM116.79 38.04L116.79 38.04Q113.80 38.04 112.17 37.17Q110.54 36.29 109.94 34.61Q109.34 32.94 109.34 30.54L109.34 30.54L109.34 16.10L106.77 16.10L106.77 11.18L109.34 11.18L109.34 3.08L116.93 3.08L116.93 11.18L120.70 11.18L120.70 16.10L116.93 16.10L116.93 29.81Q116.93 30.96 117.60 31.46Q118.27 31.97 119.28 31.97L119.28 31.97Q119.88 31.97 120.38 31.90Q120.89 31.83 121.30 31.79L121.30 31.79L121.30 37.67Q120.70 37.77 119.42 37.90Q118.13 38.04 116.79 38.04ZM133.08 38.04L133.08 38.04Q130.09 38.04 128.45 37.17Q126.82 36.29 126.22 34.61Q125.63 32.94 125.63 30.54L125.63 30.54L125.63 16.10L123.05 16.10L123.05 11.18L125.63 11.18L125.63 3.08L133.22 3.08L133.22 11.18L136.99 11.18L136.99 16.10L133.22 16.10L133.22 29.81Q133.22 30.96 133.88 31.46Q134.55 31.97 135.56 31.97L135.56 31.97Q136.16 31.97 136.67 31.90Q137.17 31.83 137.59 31.79L137.59 31.79L137.59 37.67Q136.99 37.77 135.70 37.90Q134.41 38.04 133.08 38.04ZM146.60 38.23L146.60 38.23Q144.58 38.23 143.20 37.26Q141.82 36.29 141.13 34.80Q140.44 33.30 140.44 31.74L140.44 31.74Q140.44 29.26 141.43 27.55Q142.42 25.85 144.03 24.70Q145.64 23.55 147.57 22.75Q149.50 21.94 151.39 21.30L151.39 21.30L151.39 18.63Q151.39 17.94 151.25 17.41Q151.11 16.88 150.79 16.58Q150.47 16.28 149.82 16.28L149.82 16.28Q149.18 16.28 148.83 16.56Q148.49 16.84 148.35 17.32Q148.21 17.80 148.17 18.40L148.17 18.40L147.98 20.33L140.99 20.06Q141.22 15.27 143.54 12.99Q145.87 10.72 150.51 10.72L150.51 10.72Q154.56 10.72 156.56 12.95Q158.56 15.18 158.56 18.72L158.56 18.72L158.56 31.14Q158.56 32.80 158.63 34.04Q158.70 35.28 158.81 36.20Q158.93 37.12 159.02 37.77L159.02 37.77L152.31 37.77Q152.17 36.71 151.98 35.47Q151.80 34.22 151.71 33.99L151.71 33.99Q151.25 35.65 149.98 36.94Q148.72 38.23 146.60 38.23ZM149.27 33.17L149.27 33.17Q149.73 33.17 150.12 32.98Q150.51 32.80 150.83 32.48Q151.16 32.15 151.39 31.83L151.39 31.83L151.39 24.56Q150.47 25.12 149.68 25.69Q148.90 26.27 148.35 26.96Q147.80 27.65 147.50 28.45Q147.20 29.26 147.20 30.27L147.20 30.27Q147.20 31.60 147.75 32.38Q148.30 33.17 149.27 33.17ZM170.52 37.77L163.02 37.77L163.02 11.18L170.52 11.18L170.52 13.85Q171.99 12.37 173.58 11.55Q175.17 10.72 176.92 10.72L176.92 10.72Q178.57 10.72 179.65 11.52Q180.73 12.33 181.29 13.73Q181.84 15.13 181.84 16.93L181.84 16.93L181.84 37.77L174.39 37.77L174.39 17.99Q174.39 17.02 174.06 16.51Q173.74 16.01 172.87 16.01L172.87 16.01Q172.41 16.01 171.79 16.26Q171.17 16.51 170.52 16.97L170.52 16.97L170.52 37.77ZM209.21 38.32L209.21 38.32Q204.98 38.32 202.52 36.78Q200.05 35.24 199.04 32.45Q198.03 29.67 198.03 25.90L198.03 25.90L198.03 12.47Q198.03 8.60 199.04 5.82Q200.05 3.04 202.52 1.52Q204.98 0 209.21 0L209.21 0Q213.35 0 215.67 1.36Q217.99 2.71 218.96 5.15Q219.93 7.59 219.93 10.76L219.93 10.76L219.93 13.98L211.88 13.98L211.88 10.26Q211.88 9.15 211.76 8.14Q211.65 7.13 211.09 6.46Q210.54 5.80 209.21 5.80L209.21 5.80Q207.92 5.80 207.30 6.49Q206.68 7.18 206.52 8.21Q206.36 9.25 206.36 10.40L206.36 10.40L206.36 27.92Q206.36 29.16 206.56 30.20Q206.77 31.23 207.39 31.85Q208.01 32.48 209.21 32.48L209.21 32.48Q210.50 32.48 211.05 31.81Q211.60 31.14 211.74 30.08Q211.88 29.03 211.88 27.92L211.88 27.92L211.88 24.01L219.93 24.01L219.93 27.23Q219.93 30.41 218.98 32.91Q218.04 35.42 215.72 36.87Q213.39 38.32 209.21 38.32ZM228.71 38.23L228.71 38.23Q227.10 38.23 225.97 37.42Q224.85 36.62 224.30 35.19Q223.74 33.76 223.74 32.02L223.74 32.02L223.74 11.18L231.24 11.18L231.24 31.14Q231.24 32.11 231.59 32.64Q231.93 33.17 232.81 33.17L232.81 33.17Q233.31 33.17 233.86 32.91Q234.42 32.66 235.01 32.34L235.01 32.34L235.01 11.18L242.47 11.18L242.47 37.77L235.01 37.77L235.01 35.33Q233.59 36.66 232.00 37.44Q230.41 38.23 228.71 38.23ZM254.79 37.77L247.30 37.77L247.30 11.18L254.79 11.18L254.79 15.59Q256.08 13.29 257.37 12.07Q258.66 10.86 260.50 10.86L260.50 10.86Q260.87 10.86 261.14 10.88Q261.42 10.90 261.65 10.99L261.65 10.99L261.65 18.45Q261.14 18.22 260.52 18.05Q259.90 17.89 259.21 17.89L259.21 17.89Q257.92 17.89 256.82 18.58Q255.71 19.27 254.79 20.47L254.79 20.47L254.79 37.77ZM273.06 38.04L273.06 38.04Q270.07 38.04 268.43 37.17Q266.80 36.29 266.20 34.61Q265.60 32.94 265.60 30.54L265.60 30.54L265.60 16.10L263.03 16.10L263.03 11.18L265.60 11.18L265.60 3.08L273.19 3.08L273.19 11.18L276.97 11.18L276.97 16.10L273.19 16.10L273.19 29.81Q273.19 30.96 273.86 31.46Q274.53 31.97 275.54 31.97L275.54 31.97Q276.14 31.97 276.64 31.90Q277.15 31.83 277.56 31.79L277.56 31.79L277.56 37.67Q276.97 37.77 275.68 37.90Q274.39 38.04 273.06 38.04ZM286.58 38.23L286.58 38.23Q284.56 38.23 283.18 37.26Q281.80 36.29 281.11 34.80Q280.42 33.30 280.42 31.74L280.42 31.74Q280.42 29.26 281.40 27.55Q282.39 25.85 284.00 24.70Q285.61 23.55 287.55 22.75Q289.48 21.94 291.36 21.30L291.36 21.30L291.36 18.63Q291.36 17.94 291.23 17.41Q291.09 16.88 290.77 16.58Q290.44 16.28 289.80 16.28L289.80 16.28Q289.16 16.28 288.81 16.56Q288.47 16.84 288.33 17.32Q288.19 17.80 288.14 18.40L288.14 18.40L287.96 20.33L280.97 20.06Q281.20 15.27 283.52 12.99Q285.84 10.72 290.49 10.72L290.49 10.72Q294.54 10.72 296.54 12.95Q298.54 15.18 298.54 18.72L298.54 18.72L298.54 31.14Q298.54 32.80 298.61 34.04Q298.68 35.28 298.79 36.20Q298.91 37.12 299 37.77L299 37.77L292.28 37.77Q292.15 36.71 291.96 35.47Q291.78 34.22 291.69 33.99L291.69 33.99Q291.23 35.65 289.96 36.94Q288.70 38.23 286.58 38.23ZM289.25 33.17L289.25 33.17Q289.71 33.17 290.10 32.98Q290.49 32.80 290.81 32.48Q291.13 32.15 291.36 31.83L291.36 31.83L291.36 24.56Q290.44 25.12 289.66 25.69Q288.88 26.27 288.33 26.96Q287.78 27.65 287.48 28.45Q287.18 29.26 287.18 30.27L287.18 30.27Q287.18 31.60 287.73 32.38Q288.28 33.17 289.25 33.17ZM310.59 37.77L303.09 37.77L303.09 11.18L310.59 11.18L310.59 15.59Q311.88 13.29 313.17 12.07Q314.46 10.86 316.30 10.86L316.30 10.86Q316.66 10.86 316.94 10.88Q317.22 10.90 317.45 10.99L317.45 10.99L317.45 18.45Q316.94 18.22 316.32 18.05Q315.70 17.89 315.01 17.89L315.01 17.89Q313.72 17.89 312.62 18.58Q311.51 19.27 310.59 20.47L310.59 20.47L310.59 37.77ZM329.31 38.23L329.31 38.23Q326.42 38.23 324.35 37.19Q322.28 36.16 321.17 34.16Q320.07 32.15 320.07 29.35L320.07 29.35L320.07 19.60Q320.07 16.74 321.17 14.77Q322.28 12.79 324.37 11.75Q326.46 10.72 329.31 10.72L329.31 10.72Q332.26 10.72 334.21 11.73Q336.17 12.74 337.16 14.72Q338.15 16.70 338.15 19.60L338.15 19.60L338.15 24.93L327.47 24.93L327.47 30.04Q327.47 31.05 327.70 31.69Q327.93 32.34 328.35 32.61Q328.76 32.89 329.31 32.89L329.31 32.89Q329.87 32.89 330.30 32.64Q330.74 32.38 330.99 31.83Q331.25 31.28 331.25 30.31L331.25 30.31L331.25 27.51L338.15 27.51L338.15 30.08Q338.15 34.13 335.80 36.18Q333.45 38.23 329.31 38.23ZM327.47 19.18L327.47 21.44L331.25 21.44L331.25 18.77Q331.25 17.71 330.99 17.11Q330.74 16.51 330.30 16.28Q329.87 16.05 329.27 16.05L329.27 16.05Q328.72 16.05 328.32 16.33Q327.93 16.61 327.70 17.27Q327.47 17.94 327.47 19.18L327.47 19.18ZM350.01 37.77L342.56 37.77L342.56 0.51L350.01 0.51L350.01 37.77ZM362.62 37.77L355.17 37.77L355.17 0.51L362.62 0.51L362.62 37.77ZM374.99 37.77L367.49 37.77L367.49 11.18L374.99 11.18L374.99 37.77ZM374.99 6.67L367.45 6.67L367.45 1.47L374.99 1.47L374.99 6.67Z"></path></g></svg><!----></svg>